#!OML:ASF F:\VICON\USERDATA\INSTALL\rory3\rory3.ASF
:FULLY-SPECIFIED
:DEGREES
655
root 2.59091 9.65338 -5.52052 -17.9359 -4.57103 1.97879
lowerback 29.6573 0.277786 2.01539
upperback 13.2662 0.949904 2.7333
thorax -1.37065 0.441032 1.56868
lowerneck -19.033 11.7538 -4.1314
upperneck 12.0524 17.619 -3.99685
head 6.77204 7.92933 1.29706
rclavicle -2.3059e-014 -2.38542e-014
rhumerus -10.8975 17.1923 -79.9892
rradius 95.415
rwrist 28.2909
rhand -31.3123 11.6703
rfingers 7.12502
rthumb -4.58468 -18.2601
lclavicle -2.3059e-014 -2.38542e-014
lhumerus -8.36308 -18.4476 90.9534
lradius 84.2319
lwrist -22.383
lhand -30.2339 18.0331
lfingers 7.12502
lthumb -3.54329 47.9834
rfemur -78.2331 -12.7011 22.1274
rtibia 107.353
rfoot -5.10866 4.21045
rtoes 8.72675
lfemur -77.5119 12.0055 -24.7903
ltibia 102.956
lfoot -6.00979 -10.5173
ltoes -4.89194
656
root 2.58991 9.65358 -5.5201 -17.9437 -4.60253 1.98971
lowerback 29.6744 0.313796 2.00916
upperback 13.3141 0.993633 2.76056
thorax -1.32494 0.461593 1.58973
lowerneck -18.8149 12.1277 -4.09374
upperneck 11.9359 18.1201 -4.16248
head 6.71689 8.17045 1.27736
rclavicle 3.57812e-015 4.77083e-015
rhumerus -10.851 17.111 -79.9121
rradius 95.4633
rwrist 28.3511
rhand -31.4147 11.6987
rfingers 7.12502
rthumb -4.6836 -18.2295
lclavicle 3.57812e-015 4.77083e-015
lhumerus -8.25155 -18.5014 90.9747
lradius 84.2335
lwrist -22.3788
lhand -30.1737 18.0021
lfingers 7.12502
lthumb -3.48518 47.9534
rfemur -78.2436 -12.6824 22.1273
rtibia 107.379
rfoot -5.1426 4.20815
rtoes 8.88809
lfemur -77.5013 12.0367 -24.7803
ltibia 102.947
lfoot -6.01529 -10.5306
ltoes -5.04605
657
root 2.58923 9.65235 -5.51781 -17.8878 -4.58914 2.00192
lowerback 29.6696 0.346902 2.01712
upperback 13.3564 1.03825 2.80356
thorax -1.27584 0.482979 1.61976
lowerneck -18.7266 12.4739 -4.11629
upperneck 11.8869 18.6168 -4.35178
head 6.70334 8.39754 1.26932
rclavicle 1.51076e-014 9.54166e-015
rhumerus -10.7586 16.9777 -79.7723
rradius 95.497
rwrist 28.3541
rhand -31.4555 11.8668
rfingers 7.12502
rthumb -4.72301 -18.0606
lclavicle 1.51076e-014 9.54166e-015
lhumerus -8.12281 -18.5801 91.0258
lradius 84.2605
lwrist -22.4208
lhand -30.1783 18.0793
lfingers 7.12502
lthumb -3.48962 48.0304
rfemur -78.3352 -12.6941 22.1192
rtibia 107.399
rfoot -5.1084 4.19818
rtoes 8.98537
lfemur -77.5726 12.0071 -24.8021
ltibia 102.956
lfoot -6.02075 -10.537
ltoes -5.08762
658
root 2.58915 9.65238 -5.51724 -17.8503 -4.5889 1.97166
lowerback 29.6903 0.362394 2.08231
upperback 13.3967 1.07524 2.82823
thorax -1.23851 0.503626 1.59904
lowerneck -18.7227 12.7568 -3.95604
upperneck 11.8972 19.0184 -4.67836
head 6.7558 8.5665 1.19773
rclavicle 1.31198e-014 3.18055e-015
rhumerus -10.6805 16.847 -79.6701
rradius 95.523
rwrist 28.3961
rhand -31.4917 11.9573
rfingers 7.12502
rthumb -4.75789 -17.9692
lclavicle 1.31198e-014 3.18055e-015
lhumerus -8.06932 -18.6681 91.0286
lradius 84.359
lwrist -22.41
lhand -30.165 18.0782
lfingers 7.12502
lthumb -3.47677 48.0296
rfemur -78.3536 -12.7053 22.1683
rtibia 107.378
rfoot -5.11227 4.17192
rtoes 8.73025
lfemur -77.6135 11.9786 -24.7651
ltibia 102.966
lfoot -6.05437 -10.5294
ltoes -5.15443
659
root 2.58886 9.65517 -5.51837 -17.8677 -4.57858 1.97485
lowerback 29.7401 0.376395 2.10746
upperback 13.4068 1.10201 2.84604
thorax -1.24933 0.517474 1.59633
lowerneck -18.6219 12.987 -3.62835
upperneck 11.9289 19.3329 -5.1579
head 6.83416 8.6864 1.04778
rclavicle -2.8625e-014 6.36111e-015
rhumerus -10.7436 16.79 -79.587
rradius 95.6108
rwrist 28.3243
rhand -31.5554 11.9507
rfingers 7.12502
rthumb -4.81948 -17.9745
lclavicle -2.8625e-014 6.36111e-015
lhumerus -8.08681 -18.7338 91.0655
lradius 84.4273
lwrist -22.3685
lhand -30.1239 17.844
lfingers 7.12502
lthumb -3.4371 47.796
rfemur -78.304 -12.7209 22.1597
rtibia 107.346
rfoot -5.13965 4.20664
rtoes 8.4607
lfemur -77.5862 11.973 -24.7699
ltibia 102.979
lfoot -6.08395 -10.5151
ltoes -5.2797
660
root 2.58797 9.65601 -5.51768 -17.8565 -4.56762 1.96615
lowerback 29.7755 0.379305 2.1537
upperback 13.371 1.12112 2.85112
thorax -1.30525 0.528765 1.56931
lowerneck -18.2952 13.2326 -3.41452
upperneck 11.7978 19.6448 -5.50845
head 6.79944 8.83066 0.926378
rclavicle -1.07344e-014 -1.59028e-014
rhumerus -10.903 16.7984 -79.5167
rradius 95.7127
rwrist 28.2284
rhand -31.6448 11.7997
rfingers 7.12502
rthumb -4.9058 -18.1235
lclavicle -1.07344e-014 -1.59028e-014
lhumerus -8.17312 -18.8064 91.0938
lradius 84.4881
lwrist -22.2914
lhand -30.1586 17.5838
lfingers 7.12502
lthumb -3.47064 47.5353
rfemur -78.3104 -12.7413 22.1764
rtibia 107.344
rfoot -5.16015 4.21384
rtoes 8.54554
lfemur -77.6259 11.9728 -24.7763
ltibia 103.002
lfoot -6.10062 -10.4949
ltoes -5.44934
661
root 2.58841 9.6555 -5.51602 -17.812 -4.59469 1.85895
lowerback 29.8353 0.357258 2.31411
upperback 13.3188 1.14031 2.8713
thorax -1.38803 0.54402 1.49329
lowerneck -17.9865 13.5002 -3.3017
upperneck 11.6627 19.9956 -5.76942
head 6.74848 8.99869 0.848565
rclavicle -1.59028e-015 3.18055e-015
rhumerus -10.989 16.7698 -79.4832
rradius 95.7511
rwrist 28.1583
rhand -31.5841 11.797
rfingers 7.12502
rthumb -4.84716 -18.1276
lclavicle -1.59028e-015 3.18055e-015
lhumerus -8.29369 -18.8632 91.1219
lradius 84.5638
lwrist -22.2625
lhand -30.2433 17.596
lfingers 7.12502
lthumb -3.55239 47.5461
rfemur -78.3552 -12.7375 22.3105
rtibia 107.353
rfoot -5.17712 4.22311
rtoes 8.26673
lfemur -77.6661 11.9721 -24.6569
ltibia 103.002
lfoot -6.09409 -10.5286
ltoes -5.52405
662
root 2.58741 9.6572 -5.51698 -17.7915 -4.55986 1.92419
lowerback 29.8697 0.370658 2.30022
upperback 13.3284 1.15357 2.83925
thorax -1.39237 0.551499 1.46194
lowerneck -17.8253 13.7668 -3.21408
upperneck 11.5377 20.3612 -6.03528
head 6.72451 9.16754 0.785193
rclavicle -3.97569e-015 -4.45278e-014
rhumerus -10.9978 16.7276 -79.4409
rradius 95.8059
rwrist 28.0914
rhand -31.6242 11.8105
rfingers 7.12502
rthumb -4.88584 -18.1132
lclavicle -3.97569e-015 -4.45278e-014
lhumerus -8.28205 -18.9431 91.0867
lradius 84.607
lwrist -22.2935
lhand -30.301 17.5381
lfingers 7.12502
lthumb -3.60814 47.4873
rfemur -78.4184 -12.7728 22.2458
rtibia 107.382
rfoot -5.15607 4.20685
rtoes 8.34006
lfemur -77.6307 11.9291 -24.7168
ltibia 102.951
lfoot -6.06567 -10.5182
ltoes -5.42418
663
root 2.58697 9.66112 -5.51721 -17.782 -4.57501 1.95715
lowerback 29.939 0.394283 2.30466
upperback 13.3442 1.18628 2.83483
thorax -1.4054 0.568011 1.44469
lowerneck -17.8783 14.0176 -3.29866
upperneck 11.566 20.7402 -6.11233
head 6.74739 9.3371 0.82048
rclavicle 1.31198e-014 6.36111e-015
rhumerus -11.0305 16.6667 -79.3866
rradius 95.8873
rwrist 28.0158
rhand -31.6114 11.799
rfingers 7.12502
rthumb -4.8735 -18.125
lclavicle 1.31198e-014 6.36111e-015
lhumerus -8.20204 -18.9875 91.0909
lradius 84.5792
lwrist -22.3966
lhand -30.3426 17.4771
lfingers 7.12502
lthumb -3.64832 47.4256
rfemur -78.4065 -12.7516 22.2146
rtibia 107.361
rfoot -5.10829 4.19348
rtoes 8.55895
lfemur -77.6025 11.9237 -24.7348
ltibia 102.924
lfoot -6.08542 -10.5125
ltoes -5.3351
